<svg width="1000" height="1000" viewBox="0 0 1000 1000" fill="none" xmlns="http://www.w3.org/2000/svg">
<rect width="1000" height="1000" fill="#001E0E"/>
<path d="M811 499.5C811 671.526 671.526 811 499.5 811C327.474 811 188 671.526 188 499.5C188 327.474 327.474 188 499.5 188C671.526 188 811 327.474 811 499.5Z" fill="url(#paint0_linear_105_36)"/>
<path opacity="0.05" d="M655.504 452.699H546.301V343.496C546.301 326.257 532.339 312.295 515.1 312.295H483.9C466.661 312.295 452.699 326.257 452.699 343.496V452.699H343.496C326.257 452.699 312.295 466.661 312.295 483.9V515.1C312.295 532.339 326.257 546.301 343.496 546.301H452.699V655.504C452.699 672.743 466.661 686.705 483.9 686.705H515.1C532.339 686.705 546.301 672.743 546.301 655.504V546.301H655.504C672.743 546.301 686.705 532.339 686.705 515.1V483.9C686.705 466.661 672.743 452.699 655.504 452.699Z" fill="black"/>
<path opacity="0.07" d="M654.993 460.627H538.373V344.007C538.373 331.132 527.924 320.683 515.049 320.683H483.951C471.076 320.683 460.627 331.132 460.627 344.007V460.627H344.007C331.132 460.627 320.683 471.076 320.683 483.951V515.049C320.683 527.924 331.132 538.373 344.007 538.373H460.627V654.993C460.627 667.868 471.076 678.317 483.951 678.317H515.049C527.924 678.317 538.373 667.868 538.373 654.993V538.373H654.993C667.868 538.373 678.317 527.924 678.317 515.049V483.951C678.317 471.076 667.868 460.627 654.993 460.627Z" fill="#193200"/>
<path d="M484.058 328.308H514.941C523.465 328.308 530.383 335.281 530.383 343.871V655.129C530.383 663.719 523.465 670.692 514.941 670.692H484.058C475.535 670.692 468.617 663.719 468.617 655.129V343.871C468.617 335.281 475.535 328.308 484.058 328.308Z" fill="#316000"/>
<path d="M670.691 484.058V514.942C670.691 523.465 663.719 530.383 655.129 530.383H343.871C335.281 530.383 328.308 523.465 328.308 514.942V484.058C328.308 475.535 335.281 468.617 343.871 468.617H655.129C663.719 468.617 670.691 475.535 670.691 484.058Z" fill="#316000"/>
<defs>
<linearGradient id="paint0_linear_105_36" x1="279.238" y1="279.238" x2="719.762" y2="719.762" gradientUnits="userSpaceOnUse">
<stop stop-color="#B5FF69"/>
<stop offset="1" stop-color="#4F9A00"/>
</linearGradient>
</defs>
</svg>
