<svg width="817" height="817" viewBox="0 0 817 817" fill="none" xmlns="http://www.w3.org/2000/svg">
<path d="M817 408.5C817 634.094 634.094 817 408.5 817C182.906 817 0 634.094 0 408.5C0 182.906 182.906 0 408.5 0C634.094 0 817 182.906 817 408.5Z" fill="url(#paint0_linear_105_34)"/>
<path opacity="0.05" d="M613.083 347.125H469.875V203.917C469.875 181.31 451.565 163 428.958 163H388.042C365.435 163 347.125 181.31 347.125 203.917V347.125H203.917C181.31 347.125 163 365.435 163 388.042V428.958C163 451.565 181.31 469.875 203.917 469.875H347.125V613.083C347.125 635.69 365.435 654 388.042 654H428.958C451.565 654 469.875 635.69 469.875 613.083V469.875H613.083C635.69 469.875 654 451.565 654 428.958V388.042C654 365.435 635.69 347.125 613.083 347.125Z" fill="black"/>
<path opacity="0.07" d="M612.413 357.522H459.478V204.587C459.478 187.703 445.775 174 428.891 174H388.109C371.225 174 357.522 187.703 357.522 204.587V357.522H204.587C187.703 357.522 174 371.225 174 388.109V428.891C174 445.775 187.703 459.478 204.587 459.478H357.522V612.413C357.522 629.297 371.225 643 388.109 643H428.891C445.775 643 459.478 629.297 459.478 612.413V459.478H612.413C629.297 459.478 643 445.775 643 428.891V388.109C643 371.225 629.297 357.522 612.413 357.522Z" fill="black"/>
<path d="M388.25 184H428.75C439.928 184 449 193.143 449 204.409V612.591C449 623.857 439.928 633 428.75 633H388.25C377.072 633 368 623.857 368 612.591V204.409C368 193.143 377.072 184 388.25 184Z" fill="url(#paint1_linear_105_34)"/>
<path d="M633 388.25V428.75C633 439.928 623.857 449 612.591 449H204.409C193.143 449 184 439.928 184 428.75V388.25C184 377.072 193.143 368 204.409 368H612.591C623.857 368 633 377.072 633 388.25Z" fill="url(#paint2_linear_105_34)"/>
<defs>
<linearGradient id="paint0_linear_105_34" x1="119.65" y1="119.65" x2="697.35" y2="697.35" gradientUnits="userSpaceOnUse">
<stop stop-color="#9DFFCE"/>
<stop offset="1" stop-color="#50D18D"/>
</linearGradient>
<linearGradient id="paint1_linear_105_34" x1="368" y1="408.5" x2="449" y2="408.5" gradientUnits="userSpaceOnUse">
<stop offset="0.824" stop-color="#135D36"/>
<stop offset="0.931" stop-color="#125933"/>
<stop offset="1" stop-color="#11522F"/>
</linearGradient>
<linearGradient id="paint2_linear_105_34" x1="184" y1="408.5" x2="633" y2="408.5" gradientUnits="userSpaceOnUse">
<stop offset="0.824" stop-color="#135D36"/>
<stop offset="0.931" stop-color="#125933"/>
<stop offset="1" stop-color="#11522F"/>
</linearGradient>
</defs>
</svg>
