<svg width="827" height="852" viewBox="0 0 827 852" fill="none" xmlns="http://www.w3.org/2000/svg">
<path d="M0 105C0 47.0101 47.0101 0 105 0H401V386H0V105Z" fill="#316000"/>
<path d="M426 56H722C779.99 56 827 103.01 827 161V442H426V56Z" fill="#ADFF5A"/>
<path d="M0 412H401V798H105C47.0101 798 0 750.99 0 693V412Z" fill="#ADFF5A"/>
<path d="M426 466H827V747C827 804.99 779.99 852 722 852H426V466Z" fill="#316000"/>
<path d="M194.34 293.362C178.601 293.362 164.3 289.881 151.437 282.92C138.725 275.807 128.737 266.122 121.473 253.864C114.36 241.606 110.804 227.835 110.804 212.55C110.804 197.265 114.36 183.494 121.473 171.236C128.737 158.978 138.725 149.368 151.437 142.407C164.3 135.294 178.601 131.738 194.34 131.738C210.079 131.738 224.228 135.219 236.789 142.18C249.501 149.141 259.489 158.827 266.753 171.236C274.017 183.494 277.649 197.265 277.649 212.55C277.649 227.835 274.017 241.682 266.753 254.091C259.489 266.349 249.501 275.959 236.789 282.92C224.228 289.881 210.079 293.362 194.34 293.362ZM194.34 278.38C206.901 278.38 218.251 275.58 228.39 269.981C238.529 264.23 246.474 256.361 252.225 246.373C257.976 236.234 260.851 224.959 260.851 212.55C260.851 200.141 257.976 188.942 252.225 178.954C246.474 168.815 238.529 160.945 228.39 155.346C218.251 149.595 206.901 146.72 194.34 146.72C181.779 146.72 170.354 149.595 160.063 155.346C149.924 160.945 141.903 168.815 136.001 178.954C130.25 188.942 127.375 200.141 127.375 212.55C127.375 224.959 130.25 236.234 136.001 246.373C141.903 256.361 149.924 264.23 160.063 269.981C170.354 275.58 181.779 278.38 194.34 278.38Z" fill="#ADFF5A"/>
<path d="M624.352 605.1C644.631 605.1 660.521 609.943 672.022 619.628C683.523 629.313 689.274 642.631 689.274 659.58C689.274 676.529 683.523 689.847 672.022 699.532C660.521 709.066 644.631 713.833 624.352 713.833H581.676V764H564.878V605.1H624.352ZM623.898 699.078C639.637 699.078 651.668 695.673 659.991 688.863C668.314 681.902 672.476 672.141 672.476 659.58C672.476 646.717 668.314 636.88 659.991 630.07C651.668 623.109 639.637 619.628 623.898 619.628H581.676V699.078H623.898Z" fill="#ADFF5A"/>
<path d="M681.243 346.472V361H568.878V202.1H677.838V216.628H585.676V273.151H667.85V287.452H585.676V346.472H681.243Z" fill="#316000"/>
<path d="M242.531 671L191.229 601.084L140.154 671H120.859L181.241 589.28L124.718 512.1H144.013L191.91 577.022L239.58 512.1H257.74L201.444 588.826L262.053 671H242.531Z" fill="#316000"/>
</svg>
