<svg width="320" height="270" viewBox="0 0 320 270" fill="none" xmlns="http://www.w3.org/2000/svg">
<path d="M268.789 120L95.004 120C86.72 120 80.004 126.716 80.004 135C80.004 143.284 86.72 150 95.004 150L268.789 150L249.395 169.394C243.537 175.252 243.537 184.749 249.395 190.607C255.252 196.465 264.75 196.465 270.608 190.607L315.606 145.608C315.957 145.257 316.289 144.889 316.603 144.505C316.74 144.338 316.859 144.161 316.988 143.99C317.153 143.77 317.323 143.555 317.476 143.326C317.616 143.117 317.737 142.9 317.865 142.686C317.988 142.48 318.117 142.279 318.23 142.067C318.348 141.847 318.447 141.621 318.553 141.397C318.657 141.178 318.766 140.962 318.859 140.738C318.949 140.519 319.023 140.296 319.102 140.074C319.189 139.834 319.281 139.597 319.355 139.352C319.422 139.13 319.471 138.905 319.527 138.68C319.59 138.431 319.66 138.183 319.71 137.929C319.761 137.67 319.792 137.408 319.829 137.147C319.861 136.924 319.904 136.704 319.926 136.478C319.974 135.994 319.999 135.507 320 135.021C320 135.014 320.001 135.006 320.001 134.999C320.001 134.992 320 134.984 320 134.977C319.999 134.49 319.974 134.004 319.926 133.519C319.904 133.296 319.862 133.079 319.831 132.858C319.793 132.594 319.762 132.33 319.71 132.068C319.66 131.816 319.591 131.572 319.528 131.325C319.471 131.098 319.421 130.869 319.353 130.644C319.28 130.403 319.189 130.17 319.105 129.934C319.024 129.708 318.95 129.481 318.858 129.259C318.767 129.039 318.66 128.828 318.558 128.613C318.45 128.384 318.348 128.153 318.228 127.928C318.118 127.723 317.993 127.528 317.874 127.329C317.743 127.108 317.618 126.885 317.474 126.67C317.328 126.451 317.165 126.246 317.008 126.035C316.872 125.854 316.746 125.667 316.601 125.491C316.302 125.127 315.985 124.778 315.654 124.443C315.638 124.427 315.625 124.409 315.609 124.393L270.609 79.392C267.679 76.463 263.841 74.998 260.002 74.998C256.164 74.999 252.324 76.463 249.396 79.391C243.538 85.249 243.538 94.746 249.395 100.604L268.789 120Z" fill="#4F9A00"/>
<path d="M15 270.001H205C213.284 270.001 220 263.285 220 255.001V195.001C220 186.717 213.284 180.001 205 180.001C196.716 180.001 190 186.717 190 195.001V240.001L30 240.001L30 30L190 30V75.001C190 83.285 196.716 90.001 205 90.001C213.284 90.001 220 83.285 220 75.001V15C220 6.71597 213.284 -3.05176e-05 205 -3.05176e-05H15C6.71598 -3.05176e-05 -1.52588e-05 6.71597 -1.52588e-05 15L-1.52588e-05 255.001C-1.52588e-05 263.285 6.71598 270.001 15 270.001Z" fill="#4F9A00"/>
</svg>
